<?xml version="1.0" encoding="utf-8"?>
<!-- Generator: Adobe Illustrator 24.0.2, SVG Export Plug-In . SVG Version: 6.00 Build 0)  -->
<svg version="1.1" id="Calque_1" xmlns="http://www.w3.org/2000/svg" xmlns:xlink="http://www.w3.org/1999/xlink" x="0px" y="0px"
	 viewBox="0 0 612 792" style="enable-background:new 0 0 612 792;" xml:space="preserve">
<style type="text/css">
	.st0{fill:#FFFFFF;}
	.st1{clip-path:url(#SVGID_2_);fill:none;stroke:#FF0000;stroke-width:4.4598;}
	.st2{fill:#002E60;}
	.st3{clip-path:url(#SVGID_4_);fill:none;stroke:#002E60;stroke-width:10.7063;}
	.st4{fill:#7BB1DD;}
	.st5{fill:none;stroke:#002E60;stroke-width:4.9554;}
	.st6{fill-rule:evenodd;clip-rule:evenodd;fill:#002E60;}
	.st7{fill-rule:evenodd;clip-rule:evenodd;fill:#FFBB59;}
	.st8{fill-rule:evenodd;clip-rule:evenodd;fill:#E9AB00;}
	.st9{fill-rule:evenodd;clip-rule:evenodd;fill:#7BB1DD;}
	.st10{fill-rule:evenodd;clip-rule:evenodd;fill:#FFFFFF;}
	.st11{fill-rule:evenodd;clip-rule:evenodd;fill:#A8C9E8;}
	.st12{fill-rule:evenodd;clip-rule:evenodd;fill:#FBC24E;}
	.st13{fill-rule:evenodd;clip-rule:evenodd;fill:#EAAA00;}
	.st14{fill-rule:evenodd;clip-rule:evenodd;fill:#E41819;}
	.st15{fill:#FEBE53;}
</style>
<g>
	<path class="st0" d="M438.4,396c0,35.1-14,68.8-38.8,93.6c-24.8,24.8-58.5,38.8-93.6,38.8c-35.1,0-68.8-14-93.6-38.8
		c-24.8-24.8-38.8-58.5-38.8-93.6c0-35.1,14-68.8,38.8-93.6s58.5-38.8,93.6-38.8c35.1,0,68.8,14,93.6,38.8S438.4,360.9,438.4,396
		L438.4,396z"/>
	<g>
		<defs>
			<rect id="SVGID_1_" x="166" y="256" width="280" height="280"/>
		</defs>
		<clipPath id="SVGID_2_">
			<use xlink:href="#SVGID_1_"  style="overflow:visible;"/>
		</clipPath>
		<path class="st1" d="M438.4,396c0,35.1-14,68.8-38.8,93.6c-24.8,24.8-58.5,38.8-93.6,38.8c-35.1,0-68.8-14-93.6-38.8
			c-24.8-24.8-38.8-58.5-38.8-93.6c0-35.1,14-68.8,38.8-93.6s58.5-38.8,93.6-38.8c35.1,0,68.8,14,93.6,38.8S438.4,360.9,438.4,396
			L438.4,396z"/>
	</g>
	<path class="st2" d="M306,261.4c-35.7,0-70,14.2-95.2,39.4c-25.3,25.3-39.4,59.5-39.4,95.2s14.2,70,39.4,95.2
		c25.3,25.2,59.5,39.4,95.2,39.4s70-14.2,95.2-39.4c25.3-25.3,39.4-59.5,39.4-95.2s-14.2-70-39.4-95.2S341.7,261.4,306,261.4
		L306,261.4z M306,265.8c34.5,0,67.6,13.7,92.1,38.1c24.4,24.4,38.1,57.5,38.1,92.1c0,34.5-13.7,67.6-38.1,92.1
		c-24.4,24.4-57.5,38.1-92.1,38.1c-34.5,0-67.6-13.7-92.1-38.1c-24.4-24.4-38.1-57.5-38.1-92.1c0-34.5,13.7-67.6,38.1-92.1
		C238.4,279.5,271.5,265.8,306,265.8L306,265.8z"/>
	<g>
		<defs>
			<rect id="SVGID_3_" x="166" y="256" width="280" height="280"/>
		</defs>
		<clipPath id="SVGID_4_">
			<use xlink:href="#SVGID_3_"  style="overflow:visible;"/>
		</clipPath>
		<path class="st3" d="M306,261.4c-35.7,0-70,14.2-95.2,39.4c-25.3,25.3-39.4,59.5-39.4,95.2s14.2,70,39.4,95.2
			c25.3,25.2,59.5,39.4,95.2,39.4s70-14.2,95.2-39.4c25.3-25.3,39.4-59.5,39.4-95.2s-14.2-70-39.4-95.2S341.7,261.4,306,261.4
			L306,261.4z M306,265.8c34.5,0,67.6,13.7,92.1,38.1c24.4,24.4,38.1,57.5,38.1,92.1c0,34.5-13.7,67.6-38.1,92.1
			c-24.4,24.4-57.5,38.1-92.1,38.1c-34.5,0-67.6-13.7-92.1-38.1c-24.4-24.4-38.1-57.5-38.1-92.1c0-34.5,13.7-67.6,38.1-92.1
			C238.4,279.5,271.5,265.8,306,265.8L306,265.8z"/>
	</g>
	<path class="st4" d="M306,261.4c-35.7,0-70,14.2-95.2,39.4c-25.3,25.3-39.4,59.5-39.4,95.2s14.2,70,39.4,95.2
		c25.3,25.2,59.5,39.4,95.2,39.4s70-14.2,95.2-39.4c25.3-25.3,39.4-59.5,39.4-95.2s-14.2-70-39.4-95.2S341.7,261.4,306,261.4
		L306,261.4z M306,265.8c34.5,0,67.6,13.7,92.1,38.1c24.4,24.4,38.1,57.5,38.1,92.1c0,34.5-13.7,67.6-38.1,92.1
		c-24.4,24.4-57.5,38.1-92.1,38.1c-34.5,0-67.6-13.7-92.1-38.1c-24.4-24.4-38.1-57.5-38.1-92.1c0-34.5,13.7-67.6,38.1-92.1
		C238.4,279.5,271.5,265.8,306,265.8L306,265.8z"/>
	<path class="st5" d="M389.7,396.5c0,22.1-8.8,43.3-24.4,58.9c-15.6,15.6-36.8,24.4-58.9,24.4c-22.1,0-43.3-8.8-58.9-24.4
		c-15.6-15.6-24.4-36.8-24.4-58.9c0-22.1,8.8-43.3,24.4-58.9c15.6-15.6,36.8-24.4,58.9-24.4c22.1,0,43.3,8.8,58.9,24.4
		C380.9,353.2,389.7,374.4,389.7,396.5L389.7,396.5z"/>
	<path class="st4" d="M383.9,396.4c0,20.6-8.2,40.4-22.8,55c-14.6,14.6-34.4,22.8-55,22.8s-40.4-8.2-55-22.8
		c-14.6-14.6-22.8-34.4-22.8-55c0-20.6,8.2-40.4,22.8-55c14.6-14.6,34.4-22.8,55-22.8s40.4,8.2,55,22.8
		C375.7,356,383.9,375.8,383.9,396.4L383.9,396.4z"/>
	<path class="st6" d="M241.8,332.1c-5.6,23.7-5.6,45-5.4,59.6c-0.4,66.3,48.7,86.9,69.5,93.2c20.8-6.3,69.9-26.9,69.5-93.2
		c0.2-14.6,0.2-35.9-5.4-59.6c-32.2-5.6-51.8-5.1-64.1-5.2C293.6,327,274.1,326.5,241.8,332.1L241.8,332.1z"/>
	<path class="st7" d="M248.5,336.8c-3.5,15.7-5.3,29.8-6,41.6c-0.3,12.8-0.4,25.8,1.6,37.3c1.1,6,2.8,12.3,6,18.8
		c6.7,12.6,16.3,23.7,25,29.6c11.5,8.8,23.4,13.6,30.9,16c7.5-2.4,19.3-7.2,30.9-16c8.7-5.9,18.3-17.1,25-29.6
		c3.2-6.5,5-12.8,6-18.8c2-11.5,1.9-24.5,1.6-37.3c-0.7-11.8-2.5-25.9-6-41.6c-28.9-5.3-46.4-4.8-57.5-4.9
		C294.9,332,277.4,331.5,248.5,336.8L248.5,336.8z"/>
	<path class="st2" d="M286.7,495.7c-0.3-0.2-0.9-0.9-1.4-1.2c-4.7-3-10.2-0.1-10.5,5.6c-0.2,3.5,2.4,6.4,5.2,7c2.9,0.5,5-0.8,7-2.5
		l3,3.1c-1.5,1.6-3.4,3.1-6.7,3.8c-0.6,0.1-1.5,0.2-2.5,0.2c-6.2-0.6-9.7-3.9-10.7-9.1c-0.6-2.8-0.1-5.7,1.4-8.2
		c1.8-2.9,4.4-4.6,7.8-5.3c4-0.8,8.1,0.5,10.6,3.2L286.7,495.7z"/>
	<rect x="294.6" y="489.1" class="st2" width="5" height="22"/>
	<polygon class="st2" points="322.3,493.7 315.6,493.7 315.6,511.1 310.6,511.1 310.6,493.7 303.9,493.7 303.9,489.1 322.3,489.1 	
		"/>
	<polygon class="st2" points="346.1,489.1 337.5,502.3 337.5,511.1 332.7,511.1 332.7,502.3 324.3,489.1 330,489.1 335.2,498.1 
		340.5,489.1 	"/>
	<polygon class="st6" points="221.2,357.8 219,361.9 200,352 202.4,347.5 213.2,346.8 207.7,337.3 210,332.8 229.1,342.9 226.9,347 
		214.3,340.4 219.8,350.3 208.7,351.4 	"/>
	<path class="st2" d="M247,323l-3.5,3.6l-4.9-1.9l-6.3,6.7l2.2,4.8l-3.3,3.4l-9.5-21.6l3-3.2L247,323z M234.5,323.1l-7.2-2.8l3.2,7
		L234.5,323.1z"/>
	<polygon class="st6" points="250.1,320.7 238.9,302.4 242.6,300 258.2,306.2 251.3,294.8 255.3,292.4 266.4,310.8 263,312.9 
		246.9,306.6 254.1,318.3 	"/>
	<path class="st2" d="M282.6,289.7c-0.3-0.1-1.1-0.6-1.7-0.8c-5.2-1.5-9.7,2.7-8.4,8.1c0.8,3.3,4,5.4,6.8,5.1
		c2.9-0.3,4.5-2.1,5.9-4.2l3.6,2.1c-1,1.9-2.3,3.9-5.3,5.4c-0.6,0.3-1.3,0.6-2.4,0.8c-6,1.1-10.2-1-12.6-5.7
		c-1.3-2.5-1.7-5.4-0.9-8.1c0.9-3.2,2.9-5.5,5.9-7.1c3.6-1.8,7.8-1.7,10.9,0.1L282.6,289.7z"/>
	<polygon class="st2" points="380.3,313.4 375.1,309.4 364.7,323.1 360.8,320.2 371.3,306.6 366.1,302.6 368.8,299.1 383,310 	"/>
	<polygon class="st6" points="293.8,281.3 294.3,302.8 298.9,302.7 298.7,294 307.6,293.8 307.8,302.5 312.4,302.4 312,280.8 
		307.2,280.9 307.4,289.5 298.6,289.7 298.4,281.2 	"/>
	<polygon class="st6" points="323.6,282.2 339.5,285.7 338.5,289.8 327.3,287.3 326.3,291.7 335.6,293.6 333.4,297.4 325.4,295.7 
		324.4,300.2 335.9,302.7 335,306.7 319,303.3 	"/>
	<path class="st6" d="M352.5,300.2c-2.8-2.1-2.8-3.3-2.1-4.3c0.7-0.8,1.6-0.8,2.5-0.5c1.5,0.5,2.7,1.5,3.6,2.7
		c0.5,0.6,0.9,1.3,1.3,1.9l3.7-2.3c-0.6-1.1-2.1-4.1-6.5-6c-2.1-0.9-7.1-1.8-9.3,3.4c-0.9,2.2-0.5,3.6,0,4.6c1.2,2,3.2,3.4,4.9,4.9
		c0.7,0.6,1.5,1.3,1.8,2.2c0.2,0.7,0,1.3-0.5,1.8c-2.6,2.2-7.2-2.5-8.1-5.1l-4,1.9c2.1,4.1,5.7,7.8,11.3,8c2-0.1,4.4-1.2,5.5-3.7
		c0.7-2,0.9-3.8-0.1-5.4C355.5,302.7,353.8,301.1,352.5,300.2L352.5,300.2z"/>
	<polygon class="st6" points="389.6,316.3 399.9,328.8 396.7,331.5 389.3,322.6 385.8,325.4 392.2,333 387.9,334.4 382.7,328.1 
		379.1,331 386.7,340 383.5,342.7 373,330.1 	"/>
	<path class="st2" d="M405.9,347.7l-2.2-4.4l-5.5,2.8l2.1,4.2c1.1,2.3,2.9,2.6,4.3,2.1C406.2,351.9,407.1,349.9,405.9,347.7
		L405.9,347.7z M394.5,363.5l-2.5-4.9l4.1-7.2l-1.8-3.4l-6.1,3.1l-2.1-4.2l19.2-9.7l4.1,8.2c0.6,1.1,0.8,1.8,1.1,2.7
		c0.6,1.7,0.6,3.3,0.1,4.6c-1.8,4.3-7.5,6.5-11.6,2.7L394.5,363.5z"/>
	<path class="st4" d="M406,398.2c-1.8,1.6-4.6,1.2-6.1-0.4c-0.7-0.7-1.1-1.7-1.1-2.8c0.1-0.8,0.3-1.5,0.6-2.2c0.4-0.8,1-1.4,1.7-1.7
		c1.6-0.9,3.8-0.9,5.3,0c1.1,0.7,1.8,1.8,2.1,3.1c0.2,0.8,0.3,1.7,0.3,2.7c0,2.6-0.8,5-2.7,6.2c-0.5,0.3-1.2,0.5-2,0.6
		c-2.1,0.2-3.7-0.4-5-1.4l1.4-2.2C404.2,403,406,400.2,406,398.2L406,398.2z M406.2,394.9c0-1.1-0.9-1.8-1.8-2
		c-0.4-0.1-0.9-0.1-1.3,0c-0.4,0.1-0.8,0.4-1,0.7c-1,1.2-0.3,2.8,0.6,3.1c0.3,0.1,0.8,0.2,1.3,0.3
		C405.8,396.9,406.2,395.4,406.2,394.9L406.2,394.9z"/>
	<path class="st4" d="M422.4,400.7h-1.7v2.9h-2.6v-2.9h-6.4l-0.4-2l7-8.3h2.4v8h1.7V400.7z M418.2,398.5v-4.1l-3.7,4.1H418.2z"/>
	<polygon class="st4" points="192.8,393.9 192.2,391.7 195.7,390.6 197.8,390.6 197.8,403.6 195.1,403.6 195.1,393.2 	"/>
	<path class="st4" d="M208.7,396.8c1.5,0.6,2.3,1.8,2.3,3.3c0,1.8-1.3,3-2.9,3.4c-0.6,0.2-1.3,0.2-2.1,0.2c-2.1-0.1-4.9-1-5-3.6
		c0.1-1.8,0.5-2.5,2-3.3c-1.6-1-2.2-2.7-1.2-4.5c0.2-0.4,0.6-0.8,1-1c0.4-0.3,0.9-0.5,1.4-0.6c0.5-0.1,1.1-0.2,1.7-0.2
		c2.3,0,4.3,1.1,4.5,3.4c0.1,0.6,0,1.3-0.4,1.8C209.9,396.1,209.4,396.5,208.7,396.8L208.7,396.8z M207.4,395.5
		c0.3-0.3,0.5-0.7,0.5-1.1c0-0.5-0.2-0.8-0.5-1.1c-0.3-0.3-0.8-0.4-1.3-0.4c-0.6,0-1,0.1-1.3,0.4c-0.3,0.3-0.5,0.6-0.5,1.1
		c0,0.4,0.2,0.8,0.5,1.1C205.4,396,206.5,396.1,207.4,395.5L207.4,395.5z M208.2,399.7c0-1.3-1.5-1.7-2.5-1.6c-1,0.1-2,0.7-2,1.6
		c0,1.2,1.3,1.8,2.3,1.8C207.2,401.5,208.2,400.7,208.2,399.7L208.2,399.7z"/>
	<path class="st8" d="M306,480c7.5-2.4,19.3-7.2,30.9-16c8.7-5.9,18.3-17.1,25-29.6c3.2-6.5,5-12.8,6-18.8c2-11.5,1.9-24.5,1.6-37.3
		c-0.7-11.8-2.5-25.9-6-41.6c-28.9-5.3-46.4-4.8-57.5-4.9"/>
	<path class="st9" d="M364.7,403.8c-2.7,33.1-18.2,56-58.7,70.4c-40.5-14.5-56-37.3-58.7-70.4L364.7,403.8z"/>
	<path class="st10" d="M246.9,398.9c-0.3-6.4-0.1-13.1,0.3-20.3c0.6-11.1,1.3-24,4.6-38.7c25.7-4.6,43.1-4.5,54.1-4.9
		c11,0.3,28.4,0.2,54.1,4.9c3.3,14.8,4,27.7,4.6,38.7c0.5,7.2,0.6,13.9,0.3,20.4L246.9,398.9z"/>
	<path class="st11" d="M345.1,451c-3.1,3.2-6.7,6.2-10.7,9.1l-46.6-56.2H306L345.1,451z M361.7,421.6c-1.5,5.6-3.6,10.9-6.4,15.8
		l-27.8-33.6H347L361.7,421.6z M319.7,468.6c-4.2,2-8.8,3.9-13.8,5.7l-58.7-70.4l19.1,0L319.7,468.6z"/>
	<path class="st12" d="M320.4,390c8.2-0.4,16.6-1.7,20.5-2.7c-0.8,6.4-7.3,5.7-3.6,11.7l-8.3,0c-3.1-1.1-6.4-2.4-9.2-2.6
		c-0.8-0.1-1.5-0.1-2.2,0.2c-8.7,3.3-15.7-0.5-22.2-0.6c-0.2,0.8-1.6,1.7-4.4,2c-4.7,0.6-8-1.4-11.7-1.5c-1.3,0-2.6,0.4-3.7,2.5
		c-1.9-2.6-3-4.6-5.6-7.8c-3.9-1.9-7.5-3.4-11-4.7l0.2-0.7c11.2,3.4,19.6,4.7,27.2,5.4c9.3,0.4,19.4,1,28.5,0.3
		C317.5,390.5,318.5,390.1,320.4,390L320.4,390z"/>
	<path class="st13" d="M339.7,388.2c-1,4.1-7.1,5.7-3,10.8l-4.9,0c-3.1-1.1-8.5-3.5-14.5-3.5c-2.2,1.7-6.2,2.5-12.3,1.1
		c-2.8-0.6-6.7-1.6-10.7-1.5c-0.9,3.8-13.5,2.3-18-3.6l-5.7-1.4l-1.3-1c9.1,1.9,18.3,3,23.1,3.2c8.6,0.3,16.7,0.3,22.5,0.1
		c1.9-0.6,2.3-0.8,3.3-1.2c1.4-0.7,3-0.6,4.4-0.6C330.5,390,335.6,388.9,339.7,388.2L339.7,388.2z"/>
	<path class="st13" d="M301.1,389.9c1.1-1.6,2.9-2.5,5-2.9l-0.1,4.7c0.5,0,1.1,0,1.6,0l-0.1-5c5.9-0.8,12.2,0.2,17.3,1.4l0,1.7
		c0.6,0,1.1-0.1,1.6-0.1l0-2l16.6-5.8c-4.7-6.2-4.3-13.5-3.1-20.9c-0.9,3.7-3.1,10.6-8.7,16.9c-4.5,5-4,6.1-4.8,7.5l-0.3-33.6
		l-3.8,1.3c-0.8,0.2-0.3,0.6-1,0.9l-3.8,1.5l4.4-0.2c0.6,0,0.2-0.9,0.8-1l2.4-0.2l-0.3,33.2c-2.6-4.1-7.2-9-5.3-19.3
		C314.9,385.5,300,383.6,301.1,389.9L301.1,389.9z M294.6,371.3c-4,13.7-15.9,12-15.2,17.5c1.8-1.6,3.6-1.7,5.3-2.2l0,4.2
		c0.5,0.1,1,0.1,1.5,0.1l0.1-4.5c4.3-0.5,8.1,0,12,0.4C295.2,381.7,293.2,376.6,294.6,371.3L294.6,371.3z"/>
	<path class="st7" d="M340,360.9c-0.9,3.7-3.1,10.6-8.7,16.9c-4.5,5-4,6.1-4.8,7.5l-0.2-19.6L340,360.9z M298.7,374.9l20.9-7.2
		c-4.7,17.8-19.6,15.8-18.4,22.1C297.6,386.6,294.2,380.3,298.7,374.9L298.7,374.9z M277.3,377.3l17.3-6c-4,13.7-15.9,12-15.2,17.5
		C275.4,384.8,275.3,380,277.3,377.3L277.3,377.3z"/>
	<path class="st13" d="M307.6,347.6l0-6l-3.8,1.3c-0.8,0.2-0.3,0.6-1,0.9l-3.8,1.5l4.4-0.2c0.6,0,0.2-0.9,0.8-1l2.4-0.2l0,4.2
		L307.6,347.6z"/>
	<path class="st13" d="M286.1,362.4l0-7.3l-3.8,1.3c-0.8,0.2-0.3,0.6-1,0.9l-3.7,1.4l4.3-0.1c0.6,0,0.2-0.9,0.8-1l2.4-0.2l0,5.4
		L286.1,362.4z"/>
	<path class="st7" d="M303.3,345c0.6,0,0.2-0.9,0.8-1l-0.4-1.2c-0.8,0.2-0.3,0.6-1,0.9L303.3,345z"/>
	<path class="st7" d="M314.2,345.3c-6.1,11.8-14.4,9.8-15.4,15.5c-3.2-2.6-1.8-7.9,0.2-10.2L314.2,345.3z"/>
	<path class="st13" d="M316,355.5c-2.1-2.5-3.5-5.5-1.8-10.2c-6.1,11.8-14.4,9.8-15.4,15.5C302.3,356.1,312.8,355.7,316,355.5
		L316,355.5z"/>
	<path class="st7" d="M298.9,373.9c-3.6-5.3-3.3-10.7-0.1-12.2c5.7-2,13-4.3,17.1-6.1C313.1,366.6,300.2,367.6,298.9,373.9
		L298.9,373.9z"/>
	<path class="st13" d="M316,355.5c-2.9,11.1-15.7,12.1-17,18.4c2.7-3.6,8.9-6,20.6-6.4C317,364.2,315.2,360.5,316,355.5L316,355.5z"
		/>
	<path class="st7" d="M291.7,360.4c-5,1.9-9.4,3.4-13.3,4.7c-1.8,1.8-4,6.8-0.7,11C277.1,371.2,287.5,369.4,291.7,360.4L291.7,360.4
		z"/>
	<path class="st13" d="M277.7,376.1c-0.6-4.9,9.9-6.7,14-15.7c-0.2,2.2-1,6.9,2.9,10.8C288.5,371.5,280.6,372.4,277.7,376.1
		L277.7,376.1z"/>
	<path class="st7" d="M281.8,358.6c0.6,0,0.2-0.9,0.8-1l-0.4-1.2c-0.8,0.2-0.3,0.6-1,0.9L281.8,358.6z"/>
	<path class="st7" d="M276,365.7c-4.3,3.1-12.1,8.9-16.2,18.7c2.7-0.3,5.4-0.3,9.3,0.5C266,382.8,265.4,380.4,276,365.7L276,365.7z"
		/>
	<path class="st13" d="M272.2,385.6l-3.2-0.6c-3.1-2.1-3.7-4.5,6.9-19.2C273.8,369.6,270.4,376.6,272.2,385.6L272.2,385.6z"/>
	<path class="st7" d="M321.9,355.1c0.6,0,0.2-0.9,0.8-1l-0.4-1.2c-0.8,0.2-0.3,0.6-1,0.9L321.9,355.1z"/>
	<path class="st6" d="M307.1,411.9l2.5,3.1c0.3,0.4,0.2,0.8,0.2,1.1c1.7-0.1,3.7,0.5,4.8,2.1c1.2,1.8,2.1,2.7,3.1,3.4
		c1.3,1,2.6,1.4,3.8,1.8c1.7,0.5,3,1.6,3.8,3.9c0.3,0,0.5-0.2,1.4,0.1l3.3,1.1c0.2,0.1,0.5,0.2,0.7,0.4c0.2,0.3,0.3,0.5,0.3,0.8
		c0,0.3,0,0.6-0.1,0.9l-2.5,3.5c-0.2,0.3-0.7,0.4-0.8,0.4c0.7,1.6,0.8,3.7-0.6,5.5c-1.7,2.2-2,2.9-2.4,4.1c-0.3,0.9-0.4,2.6-0.4,4.5
		c0,1.5-0.8,2.9-2.4,3.9c0,0.1,0.1,0.3,0.1,0.6l0,3.6c0,0.5,0,0.9-0.2,1.3c-0.3,0.5-0.7,0.7-1.3,0.7c-0.5,0.1-0.9,0-1-0.1l-3.6-1.2
		c-0.4-0.2-0.4-0.4-0.4-0.4c-3.6,2.9-6.6,0.3-9.5,0.2c-2.9,0.1-5.9,2.7-9.5-0.2c0,0-0.1,0.2-0.4,0.4l-3.6,1.2c-0.1,0-0.5,0.1-1,0.1
		c-0.5-0.1-0.9-0.3-1.3-0.7c-0.2-0.3-0.3-0.8-0.2-1.3l0-3.6c0-0.3,0.1-0.5,0.1-0.6c-1.7-1-2.4-2.4-2.4-3.9c0-1.9-0.1-3.6-0.4-4.5
		c-0.4-1.3-0.7-1.9-2.4-4.1c-1.4-1.8-1.2-3.9-0.6-5.5c-0.1,0-0.5-0.1-0.8-0.4l-2.5-3.5c-0.2-0.3-0.2-0.7-0.1-0.9
		c0-0.3,0.1-0.6,0.3-0.8c0.2-0.2,0.5-0.3,0.7-0.4l3.3-1.1c0.9-0.3,1.1-0.1,1.4-0.1c0.8-2.4,2.1-3.5,3.8-3.9c1.2-0.3,2.5-0.8,3.8-1.8
		c1-0.7,1.8-1.7,3.1-3.4c1.2-1.6,3.1-2.2,4.8-2.1c0-0.3-0.2-0.7,0.2-1.1l2.5-3.1c0.4-0.5,0.9-0.5,1.1-0.6
		C306.3,411.4,306.7,411.4,307.1,411.9L307.1,411.9z"/>
	<path class="st14" d="M305,424c-0.8-0.8-2.2-1.4-3.7-0.2c-0.2,0.1-0.4,0.3-0.6,0.5c-1.3,1.2-1.5,2.3-2.9,3
		c-1.9,0.9-5.3,0.9-4.2,4.6c0.4,1.1,0.4,0.9-0.6,0.7c-1.8-0.4-3.3-1.4-3.5-3.3c-0.1-1.8,0.8-3.2,2.3-3.7c1-0.3,2.1-0.4,4.1-1.8
		c2.4-1.6,2.7-3.7,4.5-4.6c1.1-0.4,2.1-0.4,3.2,0c1.7,0.8,2.1,2.6,1.9,4.7C305.5,424.5,305.2,424.2,305,424L305,424z"/>
	<path class="st14" d="M305.4,433.8l0-6.2c0.1-1.4-0.5-2.4-1.7-2.7c-0.5-0.1-1.1-0.1-1.6,0.2c-0.7,0.4-1.1,1.1-1.7,1.8
		c-0.6,0.7-1.3,1.4-2.1,1.7c-0.7,0.3-1.5,0.4-2.2,0.8c-0.8,0.4-1.4,1-1.3,2.1c0,0.6,0.3,1.2,0.8,1.6c0.5,0.4,1.1,0.6,1.8,0.8
		l5.3,1.7c0.4,0.1,0.6,0,0.8-0.3c0.6-0.9,1.1-1,1.6-1.1C305.4,434.3,305.4,434,305.4,433.8L305.4,433.8z"/>
	<path class="st14" d="M307.3,424c0.8-0.8,2.2-1.4,3.7-0.2c0.2,0.1,0.4,0.3,0.6,0.5c1.3,1.2,1.5,2.3,2.9,3c1.9,0.9,5.3,0.9,4.2,4.6
		c-0.4,1.1-0.4,0.9,0.6,0.7c1.8-0.4,3.3-1.4,3.5-3.3c0.1-1.8-0.8-3.2-2.3-3.7c-1-0.3-2.1-0.4-4.1-1.8c-2.4-1.6-2.7-3.7-4.5-4.6
		c-1.1-0.4-2.1-0.4-3.2,0c-1.7,0.8-2.1,2.6-1.9,4.7C306.8,424.5,307.1,424.2,307.3,424L307.3,424z"/>
	<path class="st14" d="M306.9,433.8l0-6.2c-0.1-1.4,0.5-2.4,1.7-2.7c0.5-0.1,1.1-0.1,1.6,0.2c0.7,0.4,1.1,1.1,1.7,1.8
		c0.6,0.7,1.3,1.4,2.1,1.7c0.7,0.3,1.5,0.4,2.2,0.8c0.8,0.4,1.4,1,1.3,2.1c0,0.6-0.3,1.2-0.8,1.6c-0.5,0.4-1.1,0.6-1.8,0.8l-5.3,1.7
		c-0.1,0.1-0.3,0.1-0.4,0.1c-0.1,0-0.1,0-0.2-0.1c-0.8-1.2-1.2-1.2-1.9-1.4C306.9,434.2,306.8,434,306.9,433.8L306.9,433.8z"/>
	<path class="st14" d="M315,447.8c1.1,0.2,2.6-0.2,3.1-2c0.1-0.2,0.1-0.5,0.2-0.8c0.3-1.7-0.2-2.8,0.6-4.2c1-1.9,3.8-3.9,0.7-6.2
		c-0.9-0.6-0.9-0.5,0.1-0.9c1.7-0.7,3.5-0.8,4.8,0.6c1.1,1.4,1.3,3,0.3,4.4c-0.6,0.9-1.4,1.6-2.2,3.9c-0.9,2.7,0,4.6-1,6.4
		c-0.6,1-1.5,1.6-2.6,1.8c-1.9,0.4-3.2-0.9-4.3-2.7C314.4,447.6,314.8,447.7,315,447.8L315,447.8z"/>
	<path class="st14" d="M308.9,440.2l3.7,5c0.7,1.2,1.8,1.7,3,1.2c0.5-0.2,0.9-0.5,1.1-1.1c0.3-0.7,0.3-1.6,0.3-2.5
		c0.1-0.9,0.2-1.9,0.7-2.6c0.4-0.6,0.9-1.3,1.3-1.9c0.4-0.8,0.5-1.6-0.2-2.5c-0.4-0.5-0.9-0.8-1.6-0.9c-0.7,0-1.2,0.2-1.9,0.4
		l-5.3,1.8c-0.3,0.1-0.5,0.3-0.4,0.6c0.1,1.2-0.4,1.7-0.8,2C308.7,439.8,308.8,440,308.9,440.2L308.9,440.2z"/>
	<path class="st14" d="M297.2,447.8c-1.1,0.2-2.6-0.2-3.1-2c-0.1-0.2-0.1-0.5-0.2-0.8c-0.3-1.7,0.2-2.8-0.6-4.2
		c-1-1.9-3.8-3.9-0.7-6.2c0.9-0.6,0.9-0.5-0.1-0.9c-1.7-0.7-3.5-0.8-4.8,0.6c-1.1,1.4-1.3,3-0.3,4.4c0.6,0.9,1.4,1.6,2.2,3.9
		c0.9,2.7,0,4.6,1,6.4c0.6,1,1.5,1.6,2.6,1.8c1.9,0.4,3.2-0.9,4.3-2.7C297.9,447.6,297.5,447.7,297.2,447.8L297.2,447.8z"/>
	<path class="st14" d="M303.3,440.2l-3.7,5c-0.7,1.2-1.8,1.7-3,1.2c-0.5-0.2-0.9-0.5-1.1-1.1c-0.3-0.7-0.3-1.6-0.3-2.5
		c-0.1-0.9-0.2-1.9-0.7-2.6c-0.4-0.6-1-1.3-1.3-1.9c-0.4-0.8-0.5-1.6,0.2-2.5c0.4-0.5,0.9-0.8,1.6-0.9c0.7,0,1.2,0.2,1.9,0.4
		l5.3,1.8c0.3,0.1,0.4,0.2,0.5,0.4c-0.2,0.9,0.2,1.5,0.7,2.1C303.5,439.8,303.5,440,303.3,440.2L303.3,440.2z"/>
	<path class="st14" d="M313.2,449c-0.2,1.1-0.9,2.4-2.9,2.4c-0.3,0-0.5,0-0.8-0.1c-1.7-0.2-2.6-1-4.1-0.7c-2.1,0.4-4.9,2.4-6.1-1.2
		c-0.3-1.1-0.2-1-0.9-0.2c-1.2,1.4-1.9,3.1-0.8,4.7c1,1.5,2.5,2.1,4.1,1.6c1-0.3,1.9-0.9,4.4-1c2.9-0.1,4.4,1.4,6.3,1
		c1.1-0.3,2-0.9,2.5-1.9c0.9-1.7,0.1-3.3-1.3-4.9C313.2,448.3,313.2,448.7,313.2,449L313.2,449z"/>
	<path class="st14" d="M307.8,440.8l3.7,5c0.9,1,1.1,2.2,0.2,3.2c-0.4,0.4-0.8,0.7-1.4,0.8c-0.8,0.1-1.6-0.2-2.5-0.5
		c-0.9-0.2-1.8-0.4-2.7-0.2c-0.7,0.2-1.5,0.5-2.2,0.6c-0.9,0.1-1.7,0-2.3-0.9c-0.4-0.5-0.5-1.1-0.3-1.8c0.2-0.7,0.6-1.1,1-1.7
		l3.3-4.5c0.2-0.2,0.3-0.4,0.6-0.3c1,0.5,1.8,0.2,2.2,0C307.5,440.5,307.7,440.7,307.8,440.8L307.8,440.8z"/>
	<path class="st15" d="M308.3,437.5c0,1.1-0.9,2.1-2.1,2.1c-1.1,0-2.1-0.9-2.1-2.1c0-1.1,0.9-2.1,2.1-2.1
		C307.3,435.4,308.3,436.4,308.3,437.5L308.3,437.5z"/>
	<path class="st14" d="M304.2,417.2c-0.2-0.2-0.2-0.3,0.1-0.5c0.6-0.7,1.1-1.5,1.7-2.5c0.6,0.9,1.2,1.7,1.7,2.5
		c0.2,0.3,0.3,0.3,0.1,0.5c-0.7,0.6-1.4,1.3-1.8,2.6C305.7,418.5,304.9,417.8,304.2,417.2L304.2,417.2z"/>
	<path class="st14" d="M324.8,429.6c0.1-0.3,0.2-0.2,0.5-0.1c0.9,0.3,1.8,0.6,2.9,0.9c-0.7,0.8-1.3,1.6-1.9,2.4
		c-0.2,0.3-0.2,0.4-0.5,0.2c-0.8-0.5-1.7-1-3-0.9C324,431.3,324.4,430.4,324.8,429.6L324.8,429.6z"/>
	<path class="st14" d="M286.3,432.9c-0.3,0.2-0.3,0.1-0.5-0.2c-0.5-0.8-1.1-1.5-1.8-2.4c1.1-0.3,2-0.6,2.9-0.9
		c0.3-0.1,0.4-0.2,0.5,0.1c0.3,0.8,0.8,1.8,1.9,2.5C288,431.9,287,432.5,286.3,432.9L286.3,432.9z"/>
	<path class="st14" d="M319.4,452.6c0.3,0,0.3,0.1,0.3,0.5c0,0.9,0,1.9,0.1,3c-1-0.4-2-0.7-2.9-0.9c-0.3-0.1-0.4-0.1-0.4-0.4
		c0.2-0.9,0.4-1.9-0.1-3.1C317.5,452.4,318.5,452.5,319.4,452.6L319.4,452.6z"/>
	<path class="st14" d="M295.7,454.6c0.1,0.3,0,0.3-0.4,0.4c-0.9,0.3-1.8,0.6-2.8,1c0.1-1.1,0.1-2.1,0-3c0-0.3,0-0.4,0.3-0.5
		c0.9-0.1,1.9-0.2,2.9-1.1C295.3,452.7,295.5,453.8,295.7,454.6L295.7,454.6z"/>
</g>
</svg>
