<svg version="1.1" id="Camada_1" xmlns="http://www.w3.org/2000/svg" x="0" y="0" viewBox="0 0 1499.9 1500" style="enable-background:new 0 0 1499.9 1500" xml:space="preserve"><style>.st0{fill:#004170}.st1{fill:#fff}.st2{fill:#e30613}.st3{fill:#ceab5d}</style><path class="st0" d="M749.9 0C336.4 0 0 336.4 0 749.9S336.4 1500 749.9 1500s749.9-336.5 749.9-750S1163.5 0 749.9 0"/><path class="st1" d="M748.9 81.5c369.3 0 668.8 299.4 668.8 668.8S1118.3 1419 748.9 1419 80.2 1119.6 80.2 750.2v-.2c.1-369.3 299.5-668.5 668.7-668.5m0-27.6c-384.5 0-696.2 311.9-696.1 696.4s311.9 696.2 696.5 696.1c384.6-.1 696.2-311.9 696.1-696.5 0-184.6-73.4-361.7-203.9-492.2-130.4-131-307.8-204.4-492.6-203.8"/><path class="st1" d="m937.3 340.2 66.2-159.2c-10.8-4.9-21.8-9.4-33-13.6l-66.1 159.1c11.2 4.1 22.2 8.7 32.9 13.7M746.6 298.2V246h43.6l37.9 59.5c14.8 2.7 29.4 6.1 43.9 10.2l-45-71.8c25.8-6.9 46.9-29.7 46.9-56.8 0-32.5-30.7-58.9-63.2-58.9h-98.6v171.4c11.5-.9 23.1-1.5 34.8-1.5l-.3.1zm0-139.5h64c15.7 0 28.4 12.7 28.4 28.4s-12.7 28.4-28.4 28.4h-64v-56.8zM435.2 421.8l-39-35.6 48.3-53.3c21.6-24 21.6-62.6-2.1-84.5-25.1-21.5-62.7-19.2-85 5.1l-71.8 79 125 113.7c7.8-8.6 16.2-16.8 24.5-24.8m-103.5-94.2 46.9-51.5c10.6-11.6 28.6-12.4 40.2-1.9s12.4 28.6 1.9 40.2l-47 51.7-42-38.5zM1088.1 277.4c25.8-6.1 73.2 41 82.3 72.9 7.5-5.7 24.3-18.1 24.3-18.1-20-57-99.8-114-137.7-78.4-22.5 21.2-9.7 54.1 9.9 74.6l19.1 20c19.4 20.5 36.4 40.9 20.8 53.7-16.6 13.7-63.2-20.7-91.1-79.9l-25.1 18.9c9 21.2 21.7 40.6 37.6 57.2 20.5 21.6 42.9 35.7 62.9 39.7 15.8 3.1 31.4.8 41.8-8.9 25.8-23.9 16.2-58.9-24.1-101.6l-16.8-17.7c-18.8-19.6-10.9-30.8-3.9-32.4M558.7 156.8c-12.2 3.9-24.3 8.2-36.3 12.9L509.6 365c11.6-7.2 23.5-13.8 35.7-19.7l1.8-45.5c23.7-10.5 48.3-19.1 73.4-25.7l30 34.4c13.2-2.9 26.6-5.4 40.2-6.8l-132-144.9zm-10.3 111.5 2.9-73.7 48.7 55.6c-17.5 5.1-34.6 11.1-51.5 18"/><path class="st0" d="M749.4 874.5c-89.5 0-161.8 69.1-161.8 154.1 0 29 8.6 57.4 24.6 81.5 88.5 34 186.4 34 274.9 0 16-24.2 24.6-52.5 24.6-81.5 0-85-72.6-153.9-162-153.9"/><path class="st2" d="M891 760.2H607.6A772.533 772.533 0 0 1 429 962.5c30.7 46.7 71.2 86.2 118.6 115.7-1.8-10.3-2.7-20.7-2.7-31.1 0-105.5 91.5-191.2 204.4-191.2s204.4 85.6 204.4 191.2c0 10.4-.9 20.8-2.7 31.1 47.4-29.5 87.9-68.9 118.5-115.5A773.01 773.01 0 0 1 891 760.2M882.2 745.2c-59.9-105.1-95.3-229.1-98-374.2-11.5-1-23.1-1.7-34.8-1.7s-23.5.6-35.1 1.7c-2.7 145.1-37.9 269.1-98 374.2h265.9z"/><path class="st1" d="M749.4 341.8c-226.8 0-410.6 183.9-410.6 410.7 0 226.8 183.9 410.6 410.7 410.6 226.7 0 410.6-183.8 410.6-410.6-.4-226.6-184-410.3-410.7-410.7m0 27.7c11.8 0 23.3.6 34.9 1.7 2.6 145.1 37.9 269.1 98 374.2H616.4c59.9-105.1 95.4-229.1 98-374.2 11.5-1.1 23.2-1.7 35-1.7m-383.1 383c0-190.7 140.3-352.3 329.1-379.2C678.6 619.5 576 798 407.1 924.6c-26.9-53.4-40.9-112.3-40.8-172.1m520.5 357.6c-88.5 34-186.4 34-274.9 0-15.9-24.2-24.4-52.5-24.4-81.5 0-85 72.6-153.9 162-153.9 89.5 0 162.1 68.9 162.1 153.9 0 29-8.6 57.4-24.6 81.5m64.3-31.9c1.8-10.3 2.7-20.7 2.7-31.1C954 941.6 862.5 856 749.6 856s-204.4 85.6-204.4 191.2c0 10.4.9 20.8 2.8 31.1-47.5-29.5-88-68.9-118.6-115.7 70.9-56.5 131.4-125 178.6-202.4h283.4c47.2 77.5 107.7 146 178.6 202.5-30.7 46.6-71.2 86-118.7 115.5M803.5 373.3c209.4 29.9 355 223.8 325.1 433.3-5.9 41.1-18.3 80.9-37 118C923.1 798 820.3 619.5 803.5 373.3"/><path class="st3" d="M763 1074.3c-4.6-2.7-7.8-7.2-9.1-12.3-.7-2.5-3.3-3.9-5.8-3.2-1.5.5-2.7 1.7-3.2 3.2-1.3 5.2-4.5 9.6-9.1 12.3-.8.5-.9.9-.5 1.5 3.2 6.4 7.6 12 12.9 16.6.8.6 1.1.6 1.2.6s.5 0 1.2-.6c5.4-4.6 9.8-10.3 12.9-16.6.4-.7.1-1-.5-1.5M776.1 988.1c0-15.6-20.5-64.5-26.7-64.5-.6.1-1.1.3-1.5.7-7.5 6-25.2 49.3-25.2 63.8 0 11.7 23.6 42.4 23.6 59.2 0 1.7 1.4 3.1 3.1 3.1 1.7 0 3.1-1.4 3.1-3.1 0-16.7 23.6-47.4 23.6-59M736.1 1046c-10.8-29.2-30.1-45.1-50-45.1-14.9 0-27.1 12.1-27.1 27.1s12.1 27.1 27.1 27.1c4.3 0 8.4-1.7 11.4-4.7 2.6-2.5 3.6-6.2 2.8-9.7-.3-.7-1.1-1.1-1.8-.8h-1.6c-5 .4-9.4-3.4-9.8-8.4-.4-5 3.4-9.4 8.4-9.8h1.4c8.9 0 24.7 8.6 33.1 27.1.6 1.1 1.7 1.9 3 1.8 1.9 0 3.4-1.5 3.4-3.4v-.1c0-.5-.1-1-.3-1.4M811.8 1000.9c-19.9 0-38.9 16.2-50 45.1-.2.4-.3.9-.3 1.4 0 1.9 1.4 3.4 3.3 3.4 1.3 0 2.4-.7 3-1.8 8.4-18.3 24.2-27.1 33.1-27.1 5 0 9.1 4.1 9.1 9.1s-4.1 9.1-9.1 9.1h-1.6c-.7-.3-1.5.1-1.8.8-.8 3.5.2 7.2 2.8 9.7 3 3 7.1 4.7 11.4 4.7 14.9 0 27.1-12.1 27.1-27.1s-12.1-27.1-27.1-27.1"/><path class="st1" d="m407.2 1209-8.2-6.2 7-22.9-21.6-18.6-21.6 10.3-7.8-6.8 64.1-30.3 7.8 6.7-19.7 67.8zm8.3-62.5-22.1 10.5 15.4 13 6.7-23.5zM470.7 1173.6l-36 54.5-7.8-5 36-54.6zM498.9 1191.5l11.1 61h.1l22.8-43.1 8.1 4.2-29.9 57-8-3.7-11.2-61.7-.2-.1-23 43.9-8-4.6 30-57.2zM609.9 1239l-3 8.7-21.3-7.3-18.3 52.4-8.7-3.1 18.3-52.4-21.3-7.4 3-8.7zM751.1 1287l29.4.5v17c0 11.5-13 19.1-29.1 18.8-18.5.3-33.7-14.5-34-33-.3-18.5 14.5-33.7 33-34h2.4c10.3 0 20.2 4.4 27.1 12.1l-6.5 6.5c-4.8-5.9-12-9.4-19.6-9.3-17-.3-27.1 10.8-27.1 24.1 0 13.5 10.9 24.4 24.4 24.4h1.4c11.1 0 19.2-4.9 19.3-10.3v-7.2l-20.2-.3-.5-9.3zM851.2 1248.2l1.3 9.1-43 6.2 2.5 16.6 21.6-3 1.3 9.1-21.6 3.1 2.8 19.4 44.5-6.4 1.3 9.2-53.7 7.7-9.1-63.6zM909.5 1232c9.8-3 20.8-.8 24.5 11.7 4.1 13.4-3.6 20.2-8.7 22.2l20.1 21.6-9.7 3.5-19.9-21.6-22.8 6.9 7.7 25.8-8.8 2.5-18.5-61.5 36.1-11.1zm-24.7 17.1 5.4 18.1 27.5-8.4c5.2-.7 8.8-5.5 8-10.7-.1-.6-.2-1.2-.5-1.8-2.1-7-8-7.1-13-5.4l-27.4 8.2zM1108.7 1195l-8.1 6.4-19.9-12.2-23.4 16.6 4.5 23.3-8.2 5.4-13.6-69.1 8.4-5.9 60.3 35.5zm-57.9-23.2 4.7 24.1 16.2-11.7-20.9-12.4zM1088.6 1127.4l43.9 47.2-6.9 6.1-43.8-47.1zM1114.1 1102.2l61.9 4.3v-.1l-36.3-32.7 6.2-6.9 47.8 43-5.6 6.8-62.4-4.2-.2.1 36.8 33.1-6.5 6.6-47.9-43.1zM1005.3 1188.5l-8.2 4.2-1.4 45.6-37.7-25.7-8.2 4.3 28 57.7 8.4-3.7-19.5-41.1.2-.1 37.3 25.3 1.5-45 .1-.1 21.9 39.9 8-4.5zM383 1105.8c-5.4-19.6-25.1-38.8-40.2-38.8-3.2-.1-6.4 1-8.9 2.9-3 2.1-4.9 5.3-5.4 8.9-.5 7 1.7 13.9 6.2 19.3l6.8 9.1c5.4 7.1 10.4 14.5 9.3 20.4-.5 2.3-1.9 4.3-4 5.4-1.2.8-2.7 1.2-4.1 1.1-9.3 0-25-16.6-32.5-40.3v-.4l-6.8 6.3c2.6 8.9 6.8 17.2 12.3 24.6 5.6 8.3 13.6 14.8 22.9 18.6 2.3.8 4.8 1.2 7.2 1.2 3 .1 6-.8 8.6-2.5 3.5-2.4 5.8-6.1 6.5-10.3 1.1-7.6-2.9-17.6-12-29.7l-6.1-8.1c-4.8-6.4-4.7-10.8-3.6-13 .9-2.1 2.8-3.5 5-3.8h1.1c10.8 0 26.6 18.3 30.7 32.5v.3h.3l6.6-3.8.1.1zM665.3 1289.7l-22.9-5.1 2.1-9.2 22.9 5.2z"/></svg>